<?xml version="1.0" encoding="utf-8"?>
<!-- Generator: Adobe Illustrator 28.1.0, SVG Export Plug-In . SVG Version: 6.00 Build 0)  -->
<svg version="1.1" id="Capa_1" xmlns="http://www.w3.org/2000/svg" xmlns:xlink="http://www.w3.org/1999/xlink" x="0px" y="0px"
	 viewBox="0 0 766.18 347.29" style="enable-background:new 0 0 766.18 347.29;" xml:space="preserve">
<style type="text/css">
	.st0{fill:url(#SVGID_1_);}
	.st1{fill:url(#SVGID_00000050628590343065512770000001130953262195185852_);}
	.st2{fill:url(#SVGID_00000035497621378976225350000017097761738600288387_);}
	.st3{fill:url(#SVGID_00000181048901784191337340000014166336036584689575_);}
	.st4{fill:url(#SVGID_00000005231942263520290340000011562394643258305980_);}
	.st5{fill:url(#SVGID_00000026150068224127327920000005853321627225428636_);}
</style>
<g>
	<linearGradient id="SVGID_1_" gradientUnits="userSpaceOnUse" x1="373.0934" y1="398.7355" x2="368.4976" y2="-48.5836">
		<stop  offset="0" style="stop-color:#D98E17"/>
		<stop  offset="0.607" style="stop-color:#E1A818"/>
		<stop  offset="1" style="stop-color:#E4B319"/>
	</linearGradient>
	<path class="st0" d="M350.75,211.98c0-34.88,0.01-69.76-0.01-104.64c0-5.47,0.56-10.85,2.23-16.07c2.57-8.07,8.99-12.9,17.22-13.12
		c8.86-0.24,15.42,4.11,18.57,12.29c1.89,4.91,2.72,10.04,2.72,15.26c0,71.22-0.02,142.44-0.12,213.66
		c-0.01,7.33-1.96,14.21-7.35,19.55c-10.42,10.32-27.9,4.97-31.8-9.67c-1.94-7.27-1.2-14.74-1.24-22.1
		c-0.17-31.72-0.07-63.44-0.07-95.16C350.84,211.98,350.79,211.98,350.75,211.98z"/>
	
		<linearGradient id="SVGID_00000067229057250517759990000016146607557568614330_" gradientUnits="userSpaceOnUse" x1="641.311" y1="395.9798" x2="636.7153" y2="-51.3393">
		<stop  offset="0" style="stop-color:#D98E17"/>
		<stop  offset="0.607" style="stop-color:#E1A818"/>
		<stop  offset="1" style="stop-color:#E4B319"/>
	</linearGradient>
	<path style="fill:url(#SVGID_00000067229057250517759990000016146607557568614330_);" d="M634.24,45.06
		c11.65,0.08,19.66,5.56,23.19,14.57c3.2,8.2,0.66,18.11-6.33,24.39c-3.17,2.84-6.76,4.16-11.02,2.64
		c-3.82-1.36-6.29-3.87-7.04-7.95c-0.37-2,0.28-3.85,0.79-5.69c0.84-3.03-0.42-4.1-3.29-3.86c-0.72,0.06-1.44,0.18-2.17,0.24
		c-4.93,0.45-8.36-1.29-10.2-5.15c-2.04-4.29-1.48-9.1,1.77-12.34C624.38,47.48,629.89,45.34,634.24,45.06z"/>
	
		<linearGradient id="SVGID_00000172418062230723673110000011164314382215716510_" gradientUnits="userSpaceOnUse" x1="739.9377" y1="394.9666" x2="735.3419" y2="-52.3526">
		<stop  offset="0" style="stop-color:#D98E17"/>
		<stop  offset="0.607" style="stop-color:#E1A818"/>
		<stop  offset="1" style="stop-color:#E4B319"/>
	</linearGradient>
	<path style="fill:url(#SVGID_00000172418062230723673110000011164314382215716510_);" d="M717.63,211.98
		c0-34.88,0.01-69.76-0.01-104.64c0-5.47,0.56-10.85,2.23-16.07c2.57-8.07,8.99-12.9,17.22-13.12c8.86-0.24,15.42,4.11,18.57,12.29
		c1.89,4.91,2.72,10.04,2.72,15.26c0,71.22-0.02,142.44-0.12,213.66c-0.01,7.33-1.96,14.21-7.35,19.55
		c-10.42,10.32-27.9,4.97-31.8-9.67c-1.94-7.27-1.2-14.74-1.24-22.1c-0.17-31.72-0.07-63.44-0.07-95.16
		C717.73,211.98,717.68,211.98,717.63,211.98z"/>
	
		<linearGradient id="SVGID_00000119823319619147444790000013386002009973600139_" gradientUnits="userSpaceOnUse" x1="559.2634" y1="396.8228" x2="554.6676" y2="-50.4964">
		<stop  offset="0" style="stop-color:#D98E17"/>
		<stop  offset="0.607" style="stop-color:#E1A818"/>
		<stop  offset="1" style="stop-color:#E4B319"/>
	</linearGradient>
	<path style="fill:url(#SVGID_00000119823319619147444790000013386002009973600139_);" d="M469.95,111.6
		c6.66-3.7,11.63-8.74,17.29-12.85c16.66-12.09,35.01-20.48,55.39-23.32c33.9-4.72,64.53,3.7,91.03,25.54
		c25.62,21.11,41.78,48.21,48.57,80.68c3.32,15.85,3.7,31.87,1.19,48.02c-4.77,30.69-17.92,57.06-40.01,78.77
		c-18.1,17.8-39.53,29.77-64.71,34.37c-8.03,1.47-16.2,1.29-24.34,1.3c-38.16,0.07-76.32,0.13-114.48,0.19
		c-1.09,0-2.2,0.04-3.27-0.12c-4.58-0.68-5.63-1.66-5.66-6.3c-0.12-19.81,0.09-39.63-0.18-59.44c-0.6-44-0.19-88-0.21-132
		c-0.02-40.6,0.1-81.19,0.23-121.79c0.02-4.94-0.14-9.93,2.15-14.59C437.09,1.58,445.16-2.12,455.11,0
		c7.42,1.58,13.77,9.48,13.81,17.85c0.13,27.84,0.1,55.67,0.06,83.51C468.98,104.65,469.62,107.82,469.95,111.6z M599.27,292.61
		c2.52,0.03,3.1,0.13,4.94-1.24c8.61-6.4,16.17-13.84,22.16-22.81c0.94-1.4,0.49-2.24-0.5-3.39c-2.55-2.95-5.24-5.72-8.16-8.3
		c-11.37-10.03-22.74-20.05-34.07-30.12c-17.04-15.16-34.04-30.37-51.07-45.53c-11.69-10.4-23.41-20.77-35.14-31.14
		c-4.45-3.93-6.09-3.68-9.48,1.13c-4.82,6.84-8.42,14.31-11.62,22.01c-3.39,8.15-2.82,10.12,3.76,15.96
		c25.14,22.28,50.2,44.65,75.32,66.96c12.33,10.95,24.71,21.86,37.11,32.74C594.69,290.79,597.08,292.44,599.27,292.61z
		 M643.72,226.02c1.73-13.39,1.75-26.16-0.71-38.79c-2.9-14.84-8.93-28.51-18.18-40.47c-19.54-25.24-44.89-37.9-77.27-34.28
		c-6.35,0.71-12.51,2.57-18.34,5.26c-3.2,1.47-3.46,2.87-1.05,5.49c2.13,2.32,4.42,4.51,6.78,6.6
		c30.55,27.17,61.11,54.33,91.7,81.46C632.13,216.16,637.75,220.88,643.72,226.02z M549.78,304.69c-3.59-3.16-7.03-6.17-10.45-9.21
		c-21.77-19.33-43.53-38.67-65.31-57.98c-1.01-0.9-1.77-2.41-3.65-1.57c-1.85,0.83-1.32,2.39-1.32,3.75
		c-0.06,19.2-0.08,38.39-0.11,57.59c-0.01,6.97,2.14,9.15,9.12,9.11c20.16-0.11,40.32-0.25,60.48-0.42
		C542.23,305.93,545.94,305.83,549.78,304.69z"/>
	
		<linearGradient id="SVGID_00000087403453771346945430000004482212303513138561_" gradientUnits="userSpaceOnUse" x1="160.9206" y1="400.9153" x2="156.3248" y2="-46.4038">
		<stop  offset="0" style="stop-color:#D98E17"/>
		<stop  offset="0.607" style="stop-color:#E1A818"/>
		<stop  offset="1" style="stop-color:#E4B319"/>
	</linearGradient>
	<path style="fill:url(#SVGID_00000087403453771346945430000004482212303513138561_);" d="M275.58,252.6
		c0-24.44,0.31-48.88-0.1-73.31c-0.3-18-5.42-34.49-19.19-47.05c-11.3-10.31-24.72-16.16-39.94-18.56
		c-28.52-4.5-62.7,17.22-70.32,47.77c-1.97,7.9-2.13,16.01-1.97,24.11c0.67,32.46-0.08,64.91-0.02,97.37
		c0.02,14.94-0.21,29.89-0.38,44.83c-0.04,3.7-1.13,7.18-3.15,10.24c-2.58,3.93-5.86,6.71-11.08,6.23c-4.63,0-6.32-0.04-9.48-0.05
		c-6.69-0.03-11.83-3.76-12.74-10.45c-1.18-8.69-5.55-15.18-11.63-21.11c-18.72-18.25-35.93-37.79-49.97-59.97
		c-13.28-20.98-23.82-43.23-31.07-67.01c-4.35-14.27-7.43-28.79-9.64-43.58c-2.24-14.98-2.43-29.98-1.86-44.97
		c0.45-11.69,8-18.67,18.92-19.65c18.12-1.62,35.42,2.04,51.81,9.93c17.29,8.32,30.82,21.15,42.76,35.83
		c1.72,2.11,2.53,2.88,4.53,0.13c8.06-11.11,16.78-21.62,28.25-29.53c14.76-10.17,30.93-16.25,48.81-17.94
		c27.89-2.64,53.24,4.22,75.59,20.93c20.23,15.12,32.71,35.42,37.72,60.29c1.95,9.67,1.96,19.43,2.26,29.21
		c1.13,37.06,0.25,74.12,0.29,111.18c0.01,9.59-0.18,19.19-0.46,28.78c-0.1,3.61-1.05,7.14-2.74,10.36
		c-2.6,4.97-6.16,8.39-12.32,7.73c-2.38,0.26-4.92,0.06-8.01-0.02c-6.19,0.61-9.89-2.93-12.43-7.88c-1.97-3.85-2.4-8.09-2.4-12.39
		c0.03-23.83,0.01-47.66,0.01-71.49C275.61,252.6,275.59,252.6,275.58,252.6z M99.93,264.83c-0.24-13.28,0.3-25.52,0.52-37.77
		c0.25-13.71,0.32-27.42-0.49-41.13c-0.52-8.79-1.38-17.47-4.19-25.83c-5.94-17.69-18.11-29.86-34.43-38.18
		c-5.74-2.93-11.75-5.27-18.03-6.86c-4.09-1.04-4.71-0.61-4.77,3.43c-0.04,2.67,0.43,5.26,0.8,7.88c1.68,11.89,3.2,23.83,6.03,35.5
		c6.3,26,16.73,50.31,31.32,72.76C83.44,245.01,90.9,254.92,99.93,264.83z"/>
	
		<linearGradient id="SVGID_00000085234139871271665650000015512651266238126213_" gradientUnits="userSpaceOnUse" x1="683.4117" y1="395.5473" x2="678.8159" y2="-51.7719">
		<stop  offset="0" style="stop-color:#D98E17"/>
		<stop  offset="0.607" style="stop-color:#E1A818"/>
		<stop  offset="1" style="stop-color:#E4B319"/>
	</linearGradient>
	<path style="fill:url(#SVGID_00000085234139871271665650000015512651266238126213_);" d="M676.79,88.33
		c11.65,0.08,19.66,5.56,23.19,14.57c3.2,8.2,0.66,18.11-6.33,24.39c-3.17,2.84-6.76,4.16-11.02,2.64
		c-3.82-1.36-6.29-3.87-7.04-7.95c-0.37-2,0.28-3.85,0.79-5.69c0.84-3.03-0.42-4.1-3.29-3.86c-0.72,0.06-1.44,0.18-2.17,0.24
		c-4.93,0.45-8.36-1.29-10.2-5.15c-2.04-4.29-1.48-9.1,1.77-12.34C666.93,90.76,672.44,88.62,676.79,88.33z"/>
</g>
</svg>
